<?xml version="1.0" encoding="UTF-8"?>
<svg viewBox="0 0 560 320" xmlns="http://www.w3.org/2000/svg" width="1120" height="640"><path d="M 150 60 Q 150 76 162 76 L 327 76 Q 333 76 333 85.6 Q 333 76 339 76 L 504 76 Q 516 76 516 60" fill="none" stroke="#D4A843" stroke-width="2.4" stroke-linecap="round" stroke-linejoin="round"></path><text x="335" y="50" text-anchor="middle" font-size="22" font-style="italic" fill="#1B2A5C" font-weight="500">L</text><text x="48" y="156" font-size="20" font-style="italic" fill="#1B2A5C" font-weight="500">a</text><text x="48" y="236" font-size="20" font-style="italic" fill="#1B2A5C" font-weight="500">b</text><line x1="70" y1="150" x2="520" y2="150" stroke="#1B2A5C" stroke-width="2.4" stroke-linecap="round"></line><line x1="70" y1="230" x2="520" y2="230" stroke="#1B2A5C" stroke-width="2.4" stroke-linecap="round"></line><g><line x1="70" y1="142" x2="70" y2="158" stroke="#1B2A5C" stroke-width="2" stroke-linecap="round"></line><line x1="70" y1="222" x2="70" y2="238" stroke="#1B2A5C" stroke-width="2" stroke-linecap="round"></line></g><g><line x1="520" y1="142" x2="520" y2="158" stroke="#1B2A5C" stroke-width="2" stroke-linecap="round"></line><line x1="520" y1="222" x2="520" y2="238" stroke="#1B2A5C" stroke-width="2" stroke-linecap="round"></line></g><g><line x1="150" y1="127" x2="150" y2="146" stroke="#1B2A5C" stroke-width="2" stroke-linecap="round"></line><path d="M 143 138 L 150 148 L 157 138 Z" fill="#1B2A5C" stroke="#1B2A5C" stroke-width="1" stroke-linejoin="round"></path></g><g><line x1="230" y1="207" x2="230" y2="226" stroke="#1B2A5C" stroke-width="2" stroke-linecap="round"></line><path d="M 223 218 L 230 228 L 237 218 Z" fill="#1B2A5C" stroke="#1B2A5C" stroke-width="1" stroke-linejoin="round"></path></g><path d="M 150 138 Q 150 126 162 126 L 234 126 Q 240 126 240 118.8 Q 240 126 246 126 L 318 126 Q 330 126 330 138" fill="none" stroke="#D4A843" stroke-width="2.2" stroke-linecap="round" stroke-linejoin="round"></path><text x="240" y="116" text-anchor="middle" font-size="16" font-style="italic" fill="#D4A843" font-weight="700">maskA</text><path d="M 150 161 L 150 168 L 330 168 L 330 161" fill="none" stroke="#CC3333" stroke-width="2" stroke-linecap="round" stroke-linejoin="round"></path><text x="340" y="180" font-size="15" font-style="italic" fill="#CC3333" font-weight="600">N</text><path d="M 230 242 Q 230 254 242 254 L 314 254 Q 320 254 320 261.2 Q 320 254 326 254 L 398 254 Q 410 254 410 242" fill="none" stroke="#3366CC" stroke-width="2.2" stroke-linecap="round" stroke-linejoin="round"></path><text x="320" y="274" text-anchor="middle" font-size="16" font-style="italic" fill="#3366CC" font-weight="700">maskB</text><g><line x1="150" y1="198" x2="230" y2="198" stroke="#2D8C3C" stroke-width="1.8"></line><path d="M 156 194 L 150 198 L 156 202" fill="none" stroke="#2D8C3C" stroke-width="1.6" stroke-linecap="round" stroke-linejoin="round"></path><path d="M 224 194 L 230 198 L 224 202" fill="none" stroke="#2D8C3C" stroke-width="1.6" stroke-linecap="round" stroke-linejoin="round"></path><text x="190" y="214" text-anchor="middle" font-size="14" font-style="italic" fill="#2D8C3C" font-weight="600">shift</text></g></svg>